<?xml version="1.0" standalone="no"?><!DOCTYPE svg PUBLIC "-//W3C//DTD SVG 1.1//EN" "http://www.w3.org/Graphics/SVG/1.1/DTD/svg11.dtd"><svg t="1572501115080" class="icon" viewBox="0 0 1024 1024" version="1.1" xmlns="http://www.w3.org/2000/svg" p-id="1189" width="16" height="16" xmlns:xlink="http://www.w3.org/1999/xlink"><defs><style type="text/css"></style></defs><path d="M943.94 298.48L776.8 126a57.64 57.64 0 0 0-41.4-17.53H288.8A57.64 57.64 0 0 0 247.4 126L80.26 298.48a57.64 57.64 0 0 0-15.91 46.32l56.15 518.8a57.64 57.64 0 0 0 57.31 51.4h668.57a57.64 57.64 0 0 0 57.31-51.44l56.16-518.8a57.64 57.64 0 0 0-15.91-46.28zM846.38 857.4H177.81L127.87 396h768.46z m56.16-518.75H121.66L288.8 180.22h446.6L902.54 338.6z" p-id="1190" fill="#1296db"></path><path d="M282.45 598h55a7.71 7.71 0 0 1 7.71 7.71V796a7.71 7.71 0 0 0 7.71 7.71h58.63a7.71 7.71 0 0 0 7.71-7.71V605.69a7.71 7.71 0 0 1 7.71-7.71h55a7.59 7.59 0 0 0 6.32-3.29c8.65-12.86 7.8-31.23-2.64-43l-82.74-92.93a27 27 0 0 0-41.37 0l-82.74 92.93c-10.44 11.75-11.29 30.11-2.64 43a7.59 7.59 0 0 0 6.34 3.31zM669.43 733.36a17.25 17.25 0 0 0 26.39 0l52.78-59.28c6.66-7.49 7.2-19.21 1.68-27.41a4.84 4.84 0 0 0-4-2.1h-35.11a4.92 4.92 0 0 1-4.92-4.92V518.27a4.92 4.92 0 0 0-4.92-4.92h-37.4a4.92 4.92 0 0 0-4.92 4.92v121.38a4.92 4.92 0 0 1-4.92 4.92H619a4.84 4.84 0 0 0-4 2.1c-5.52 8.2-5 19.92 1.68 27.41z" p-id="1191" fill="#1296db"></path></svg>