<?xml version="1.0" standalone="no"?><!DOCTYPE svg PUBLIC "-//W3C//DTD SVG 1.1//EN" "http://www.w3.org/Graphics/SVG/1.1/DTD/svg11.dtd"><svg t="1572501261821" class="icon" viewBox="0 0 1024 1024" version="1.1" xmlns="http://www.w3.org/2000/svg" p-id="2925" width="16" height="16" xmlns:xlink="http://www.w3.org/1999/xlink"><defs><style type="text/css"></style></defs><path d="M257.141498 320.148507l324.879252 0c15.954367 0 29.006637-13.053294 29.006637-29.006637l0-5.801123c0-15.954367-13.053294-29.007661-29.006637-29.007661l-324.879252 0c-15.954367 0-29.006637 13.053294-29.006637 29.007661l0 5.801123C228.134861 307.095213 241.188154 320.148507 257.141498 320.148507z" p-id="2926" fill="#5bcddb"></path><path d="M228.134861 419.062308c0 15.954367 13.053294 29.006637 29.006637 29.006637l324.879252 0c15.954367 0 29.006637-13.053294 29.006637-29.006637l0-5.801123c0-15.954367-13.053294-29.006637-29.006637-29.006637l-324.879252 0c-15.954367 0-29.006637 13.053294-29.006637 29.006637L228.134861 419.062308z" p-id="2927" fill="#5bcddb"></path><path d="M737.03015 62.758346 160.972205 62.758346c-52.782134 0-95.723132 42.940998-95.723132 95.723132l0 702.994985c0 52.782134 42.940998 95.723132 95.723132 95.723132l387.471822 0c-20.400632-11.391445-39.353286-25.668613-56.329936-42.645263-6.752798-6.751774-13.063527-13.826913-18.952654-21.170159l-312.190255 0c-17.593703 0-31.907711-14.314007-31.907711-31.908734L129.063471 158.482501c0-17.593703 14.314007-31.907711 31.907711-31.907711L737.03015 126.57479c17.593703 0 31.907711 14.314007 31.907711 31.907711l0 339.049996c22.852474 9.304923 44.325531 21.965268 63.815421 37.72623L832.753281 158.482501C832.753281 105.700367 789.812283 62.758346 737.03015 62.758346z" p-id="2928" fill="#5bcddb"></path><path d="M662.72277 851.278193c-0.355087-1.52575-0.821715-3.0208-1.394766-4.476965l-20.405749-65.48034c-1.016143-3.267417-3.778046-5.691629-7.142677-6.26775-3.37691-0.564865-6.79373 0.796132-8.832156 3.533476l-16.712637 22.418592c-14.774495-17.873066-23.508413-40.410362-24.210401-64.611553-0.509606-17.615193-15.219633-31.463596-32.81743-30.971385-17.615193 0.509606-31.482015 15.20326-30.971385 32.81743 0.925069 31.962969 10.781554 62.886259 28.503171 89.426729 6.105045 9.144264 13.06455 17.619286 20.73116 25.360598l-17.188474 23.073508c-2.050706 2.736321-2.388397 6.395664-0.86674 9.470699 1.511423 3.061732 4.623297 5.019317 8.037047 5.054109l103.467513 1.274016c2.064009 0.020466 4.046153-0.657986 5.65172-1.896186 0.648776-0.500397 1.231037-1.101077 1.740644-1.76725 1.730411-2.335185 2.25639-5.366218 1.391696-8.143471L662.72277 851.278193z" p-id="2929" fill="#5bcddb"></path><path d="M891.718231 780.538059l-48.244794-91.540879c-0.967024-1.824555-2.508123-3.241834-4.363378-4.062526-0.74906-0.331551-1.555425-0.556679-2.384303-0.686638-2.877537-0.406253-5.792936 0.577145-7.820106 2.662643l-72.119551 74.175373c-2.38635 2.451842-3.199878 6.036483-2.100848 9.268084 1.11438 3.236718 3.940752 5.590322 7.319709 6.076392l24.065092 3.471055c-8.455579 17.35118-21.6286 32.330336-38.554084 43.128263-14.857383 9.477862-19.216667 29.204136-9.740852 44.061518 6.086625 9.540284 16.395412 14.750959 26.930349 14.750959 5.870708 0 11.81407-1.619894 17.130146-5.010107 32.934087-21.0095 56.987922-51.928696 69.350484-87.549985l31.187303 4.487198c3.38305 0.496304 6.759961-0.952698 8.736988-3.756557C893.081275 787.224342 893.316635 783.555789 891.718231 780.538059z" p-id="2930" fill="#5bcddb"></path><path d="M741.248218 639.740336c15.468296 8.436136 34.852786 2.738367 43.290969-12.732999 8.438183-15.470343 2.737344-34.852786-12.732999-43.290969-24.833595-13.544481-52.986795-20.702508-81.418334-20.702508-18.49319 0-36.801161 3.055592-54.163597 8.882298l-14.563694-26.213012c-1.65264-2.993171-4.849448-4.805446-8.277524-4.681626-3.412726 0.119727-6.475482 2.152013-7.910157 5.250584l-30.113855 64.681138c-0.349971 0.690732-0.680499 1.388627-0.977257 2.099824l-12.582573 27.025517c-0.86674 1.873674-1.063215 3.959172-0.593518 5.932106 0.189312 0.797156 0.49835 1.574868 0.896416 2.313695 1.418302 2.536776 3.965312 4.26207 6.852058 4.614088l26.549679 3.236718c2.718925 0.731664 5.522784 1.109264 8.335852 1.109264 0.189312 0 0.378623-0.020466 0.567935-0.023536l67.242474 8.197706c3.396353 0.415462 6.741541-1.106194 8.648984-3.936659 1.902326-2.845815 2.065032-6.520507 0.407276-9.504468l-12.681834-22.844288c7.261381-1.539053 14.740726-2.323928 22.363334-2.323928C708.173938 626.828258 725.761502 631.292943 741.248218 639.740336z" p-id="2931" fill="#5bcddb"></path></svg>