<?xml version="1.0" standalone="no"?><!DOCTYPE svg PUBLIC "-//W3C//DTD SVG 1.1//EN" "http://www.w3.org/Graphics/SVG/1.1/DTD/svg11.dtd"><svg t="1572501488893" class="icon" viewBox="0 0 1024 1024" version="1.1" xmlns="http://www.w3.org/2000/svg" p-id="4482" width="16" height="16" xmlns:xlink="http://www.w3.org/1999/xlink"><defs><style type="text/css"></style></defs><path d="M494.208 853.333333H296.362667C274.133333 853.333333 256 834.048 256 810.325333V299.008C256 275.285333 274.133333 256 296.362667 256h107.178666a20.736 20.736 0 0 0 12.458667-4.48 20.992 20.992 0 0 0 10.922667-14.037333A85.76 85.76 0 0 1 510.208 170.666667c40.448 0 75.605333 28.714667 83.626667 68.266666a21.333333 21.333333 0 0 0 20.864 17.066667c0.896 0 1.792-0.170667 2.688-0.256 0.426667 0.042667 0.810667 0.256 1.28 0.256h108.970666c22.229333 0 40.362667 19.285333 40.362667 43.008v236.117333a21.333333 21.333333 0 0 0 42.666667 0V299.008C810.666667 251.776 773.418667 213.333333 727.637333 213.333333H630.613333a128.298667 128.298667 0 0 0-120.405333-85.333333A128.512 128.512 0 0 0 389.973333 213.333333H296.362667C250.581333 213.333333 213.333333 251.776 213.333333 299.008v511.317333C213.333333 857.557333 250.581333 896 296.362667 896h197.845333a21.333333 21.333333 0 0 0 0-42.666667" p-id="4483" fill="#d81e06"></path><path d="M705.792 682.666667a64 64 0 1 0 0 128.042666 64 64 0 0 0 0-128.042666" p-id="4484" fill="#d81e06"></path><path d="M705.792 853.333333a106.794667 106.794667 0 0 1-106.666667-106.666666c0-58.794667 47.829333-106.666667 106.666667-106.666667s106.666667 47.872 106.666667 106.666667-47.829333 106.666667-106.666667 106.666666m-190.250667-149.333333a148.053333 148.053333 0 0 1-89.002666-30.122667l208.213333-208.213333A148.053333 148.053333 0 0 1 664.874667 554.666667c0 18.005333-3.370667 35.498667-9.557334 52.053333a149.248 149.248 0 0 0-89.088 88.277333 148.906667 148.906667 0 0 1-50.688 9.002667m0-298.666667c33.493333 0 64.085333 11.477333 89.045334 30.165334l-208.213334 208.213333A147.968 147.968 0 0 1 366.208 554.666667c0-82.346667 66.986667-149.333333 149.333333-149.333334m190.250667 192c-1.237333 0-2.389333 0.341333-3.626667 0.384A193.706667 193.706667 0 0 0 707.541333 554.666667a190.976 190.976 0 0 0-53.845333-132.736c-0.725333-1.066667-1.194667-2.261333-2.133333-3.242667-0.981333-0.938667-2.176-1.408-3.242667-2.133333A191.018667 191.018667 0 0 0 515.541333 362.666667a192.213333 192.213333 0 0 0-192 192c0 105.856 86.144 192 192 192 14.08 0 27.861333-2.005333 41.429334-4.992-0.085333 1.706667-0.512 3.285333-0.512 4.992 0 82.346667 66.986667 149.333333 149.333333 149.333333s149.333333-66.986667 149.333333-149.333333-66.986667-149.333333-149.333333-149.333334" p-id="4485" fill="#d81e06"></path></svg>