<?xml version="1.0" standalone="no"?><!DOCTYPE svg PUBLIC "-//W3C//DTD SVG 1.1//EN" "http://www.w3.org/Graphics/SVG/1.1/DTD/svg11.dtd"><svg t="1575274413082" class="icon" viewBox="0 0 1024 1024" version="1.1" xmlns="http://www.w3.org/2000/svg" p-id="808" width="128" height="128" xmlns:xlink="http://www.w3.org/1999/xlink"><defs><style type="text/css"></style></defs><path d="M854.2464 730.4448h-183.9616l44.1344-34.1248c14.72-6.8352 14.72-27.3152 7.3728-40.96-7.3728-6.8352-29.44-13.6448-44.16 0l-147.1744 102.4 147.2 102.4c7.3472 6.8352 14.6944 6.8352 14.6944 6.8352 7.3472 0 14.72-6.8352 22.0672-13.6704 7.3728-13.6448 7.3728-27.2896-7.3472-40.96L662.912 778.24h191.3344c58.88 0 103.0144 40.96 103.0144 95.5648 0 54.6304-44.16 95.5904-103.0144 95.5904h-242.8416c-14.72 0-29.44 13.6448-29.44 27.2896 0 13.6704 14.72 27.3152 29.44 27.3152h250.1888c88.32 0 161.8944-68.2752 161.8944-150.1952s-80.9472-143.36-169.2416-143.36z" fill="#1B7AFF" p-id="809"></path><path d="M59.52 942.08V81.92c0-13.6448 14.72-27.3152 29.44-27.3152h757.9136c14.72 0 29.44 13.6704 29.44 27.3152v484.6848c0 13.6704 14.72 27.3152 29.44 27.3152s29.44-13.6448 29.44-27.3152V81.92c0-47.7952-36.8128-81.92-88.32-81.92H88.96C37.4528 0 0.64 34.1248 0.64 81.92v860.16c0 47.7952 36.8128 81.92 88.32 81.92h316.416c14.72 0 29.44-13.6448 29.44-27.3152 0-13.6448-14.72-27.2896-29.44-27.2896H88.96c-14.72 0-29.44-13.6704-29.44-27.3152z" fill="#1B7AFF" p-id="810"></path><path d="M177.2544 218.4448h316.416c14.72 0 29.44 13.6704 29.44 27.3152 0 13.6448-14.72 27.3152-29.44 27.3152H177.2544c-14.72-6.8352-29.44-13.6704-29.44-27.3152 0-20.48 14.72-27.3152 29.44-27.3152z m581.3248-27.2896c29.44 0 58.88 27.2896 58.88 54.6048s-29.44 54.6048-58.88 54.6048c-36.7872-6.8096-58.88-27.2896-58.88-54.6048 0-34.1248 22.0928-54.6048 58.88-54.6048zM177.2544 484.6848h610.7648c14.72 0 29.44 13.6704 29.44 27.3152 0 13.6448-14.72 27.3152-29.44 27.3152H177.2544c-14.72 0-29.44-13.6704-29.44-27.3152 0-13.6448 14.72-27.3152 29.44-27.3152z m0 273.0752h264.9088c14.72 0 29.44 13.6448 29.44 27.3152 0 13.6448-14.72 27.2896-29.44 27.2896H177.2544c-14.72 0-29.44-13.6448-29.44-27.2896 0-20.48 14.72-27.3152 29.44-27.3152z" fill="#1B7AFF" p-id="811"></path></svg>