<?xml version="1.0" standalone="no"?><!DOCTYPE svg PUBLIC "-//W3C//DTD SVG 1.1//EN" "http://www.w3.org/Graphics/SVG/1.1/DTD/svg11.dtd"><svg t="1572501534211" class="icon" viewBox="0 0 1024 1024" version="1.1" xmlns="http://www.w3.org/2000/svg" p-id="5508" width="16" height="16" xmlns:xlink="http://www.w3.org/1999/xlink"><defs><style type="text/css"></style></defs><path d="M640 275.2H192c-12.8 0-19.2-6.4-19.2-19.2s6.4-19.2 19.2-19.2h448c12.8 0 19.2 6.4 19.2 19.2s-6.4 19.2-19.2 19.2zM640 435.2H192c-12.8 0-19.2-6.4-19.2-19.2s6.4-19.2 19.2-19.2h448c12.8 0 19.2 6.4 19.2 19.2s-6.4 19.2-19.2 19.2zM448 595.2H192c-12.8 0-19.2-6.4-19.2-19.2s6.4-19.2 19.2-19.2h256c12.8 0 19.2 6.4 19.2 19.2s-6.4 19.2-19.2 19.2zM448 755.2H192c-12.8 0-19.2-6.4-19.2-19.2s6.4-19.2 19.2-19.2h256c12.8 0 19.2 6.4 19.2 19.2s-6.4 19.2-19.2 19.2zM748.8 633.6c-51.2 0-96-44.8-96-96s44.8-96 96-96 96 44.8 96 96-44.8 96-96 96z m0-153.6c-32 0-57.6 25.6-57.6 57.6s25.6 57.6 57.6 57.6 57.6-25.6 57.6-57.6-25.6-57.6-57.6-57.6zM870.4 806.4c32 0 57.6 25.6 57.6 57.6s-25.6 57.6-57.6 57.6h-256c-32 0-57.6-25.6-57.6-57.6s25.6-57.6 57.6-57.6h256m0-38.4h-256c-51.2 0-96 44.8-96 96S556.8 960 614.4 960h256c51.2 0 96-44.8 96-96s-44.8-96-96-96z" fill="#58c55d" p-id="5509"></path><path d="M634.24 788.736l64.64-194.368 36.48 12.16-64.704 194.304zM762.24 606.592l36.416-12.16 64.768 194.304-36.48 12.16z" fill="#58c55d" p-id="5510"></path><path d="M473.6 960H211.2C128 960 64 902.4 64 832V192c0-70.4 64-128 147.2-128h512c83.2 0 147.2 57.6 147.2 128v204.8c0 12.8-6.4 19.2-19.2 19.2s-19.2-6.4-19.2-19.2V192c0-51.2-51.2-89.6-108.8-89.6h-512c-57.6 0-108.8 38.4-108.8 89.6v640c0 51.2 51.2 89.6 108.8 89.6h262.4c12.8 0 19.2 6.4 19.2 19.2s-6.4 19.2-19.2 19.2z" fill="#58c55d" p-id="5511"></path></svg>