<?xml version="1.0" standalone="no"?><!DOCTYPE svg PUBLIC "-//W3C//DTD SVG 1.1//EN" "http://www.w3.org/Graphics/SVG/1.1/DTD/svg11.dtd"><svg t="1587708070744" class="icon" viewBox="0 0 1024 1024" version="1.1" xmlns="http://www.w3.org/2000/svg" p-id="1586" width="16" height="16" xmlns:xlink="http://www.w3.org/1999/xlink"><defs><style type="text/css"></style></defs><path d="M837.376 37.632H186.56a179.84 179.84 0 0 0-179.584 179.776v242.24c0 12.608 10.176 22.72 22.72 22.72 12.672 0 32.896-10.112 32.896-22.72v-242.24c0-58.944 62.656-118.912 123.904-120.256h650.944c56.64 1.344 126.464 65.344 123.84 120.256v242.24c0 12.608 20.352 22.72 32.96 22.72a22.656 22.656 0 0 0 22.72-22.72v-242.24a179.84 179.84 0 0 0-179.584-179.776zM859.968 714.88a25.344 25.344 0 0 0 1.472 35.52c39.04 35.968 61.44 86.784 61.44 139.776a25.152 25.152 0 1 0 50.304 0 240.448 240.448 0 0 0-77.696-176.832 25.344 25.344 0 0 0-35.52 1.536z" p-id="1587" fill="#13227a"></path><path d="M296.768 696.32a24.704 24.704 0 0 0 12.352-19.968 25.152 25.152 0 0 0-23.936-26.304 110.208 110.208 0 0 1-105.024-110.208c0-48.768 32.768-92.416 79.552-106.048a25.152 25.152 0 1 0-13.888-48.32 161.664 161.664 0 0 0-115.904 154.432 160.64 160.64 0 0 0 66.176 130.048 238.72 238.72 0 0 0-145.408 220.352 25.216 25.216 0 0 0 50.432 0 188.8 188.8 0 0 1 182.72-189.376 23.296 23.296 0 0 0 12.928-4.608zM778.304 385.536a25.024 25.024 0 0 0-31.232 17.088 25.28 25.28 0 0 0 17.088 31.232 110.912 110.912 0 0 1 79.616 106.048 110.08 110.08 0 0 1-105.088 110.08 25.344 25.344 0 0 0-23.936 26.432 25.152 25.152 0 0 0 25.216 23.808h1.088a160.32 160.32 0 0 0 153.088-160.32 161.408 161.408 0 0 0-115.84-154.368z" p-id="1588" fill="#13227a"></path><path d="M511.936 308.032a200.576 200.576 0 0 0-200.192 200.384c0 71.616 37.824 134.272 94.144 169.856a302.976 302.976 0 0 0-196.288 283.072c0 13.888 11.2 25.088 25.088 25.088a24.96 24.96 0 0 0 25.152-25.088 252.608 252.608 0 0 1 252.288-252.48 200.576 200.576 0 0 0 200.192-200.384 200.704 200.704 0 0 0-200.384-200.448z m0 350.528a150.08 150.08 0 1 1 150.08-150.144 150.336 150.336 0 0 1-150.08 150.144zM680.832 739.712a25.152 25.152 0 0 0 1.664 35.52 253.632 253.632 0 0 1 81.664 186.112c0 13.888 11.136 25.088 25.216 25.088a25.024 25.024 0 0 0 25.024-25.088 303.36 303.36 0 0 0-97.984-223.104 25.216 25.216 0 0 0-35.584 1.472z" p-id="1589" fill="#13227a"></path></svg>